<mxfile host="app.diagrams.net" modified="2024-06-03T14:00:59.898Z" agent="Mozilla/5.0 (Windows NT 10.0; Win64; x64) AppleWebKit/537.36 (KHTML, like Gecko) Chrome/125.0.0.0 Safari/537.36 Edg/125.0.0.0" etag="Xnskz9vDUDqc2p9uJ-ta" version="24.4.13" type="github">
  <diagram name="Page-1" id="3PN2rh3VQLnYHQBcSh-1">
    <mxGraphModel dx="1363" dy="799" grid="1" gridSize="10" guides="1" tooltips="1" connect="1" arrows="1" fold="1" page="1" pageScale="1" pageWidth="850" pageHeight="1100" math="0" shadow="0">
      <root>
        <mxCell id="0" />
        <mxCell id="1" parent="0" />
        <mxCell id="YR-1bHBkWM_l507x0TIl-3" value="" style="edgeStyle=orthogonalEdgeStyle;rounded=0;orthogonalLoop=1;jettySize=auto;html=1;" edge="1" parent="1" source="YR-1bHBkWM_l507x0TIl-1" target="YR-1bHBkWM_l507x0TIl-2">
          <mxGeometry relative="1" as="geometry" />
        </mxCell>
        <mxCell id="YR-1bHBkWM_l507x0TIl-1" value="Bắt đầu" style="ellipse;whiteSpace=wrap;html=1;" vertex="1" parent="1">
          <mxGeometry x="278" y="10" width="120" height="80" as="geometry" />
        </mxCell>
        <mxCell id="YR-1bHBkWM_l507x0TIl-5" value="" style="edgeStyle=orthogonalEdgeStyle;rounded=0;orthogonalLoop=1;jettySize=auto;html=1;" edge="1" parent="1" source="YR-1bHBkWM_l507x0TIl-2" target="YR-1bHBkWM_l507x0TIl-4">
          <mxGeometry relative="1" as="geometry" />
        </mxCell>
        <mxCell id="YR-1bHBkWM_l507x0TIl-2" value="Khởi tạo các biến và cài đặt các chân" style="whiteSpace=wrap;html=1;" vertex="1" parent="1">
          <mxGeometry x="278" y="120" width="120" height="60" as="geometry" />
        </mxCell>
        <mxCell id="YR-1bHBkWM_l507x0TIl-7" value="" style="edgeStyle=orthogonalEdgeStyle;rounded=0;orthogonalLoop=1;jettySize=auto;html=1;" edge="1" parent="1" source="YR-1bHBkWM_l507x0TIl-4" target="YR-1bHBkWM_l507x0TIl-6">
          <mxGeometry relative="1" as="geometry" />
        </mxCell>
        <mxCell id="YR-1bHBkWM_l507x0TIl-4" value="Kiểm tra kết nối WiFi" style="whiteSpace=wrap;html=1;" vertex="1" parent="1">
          <mxGeometry x="278" y="230" width="120" height="60" as="geometry" />
        </mxCell>
        <mxCell id="YR-1bHBkWM_l507x0TIl-9" value="" style="edgeStyle=orthogonalEdgeStyle;rounded=0;orthogonalLoop=1;jettySize=auto;html=1;" edge="1" parent="1" source="YR-1bHBkWM_l507x0TIl-6" target="YR-1bHBkWM_l507x0TIl-8">
          <mxGeometry relative="1" as="geometry" />
        </mxCell>
        <mxCell id="YR-1bHBkWM_l507x0TIl-28" value="T" style="edgeLabel;html=1;align=center;verticalAlign=middle;resizable=0;points=[];" vertex="1" connectable="0" parent="YR-1bHBkWM_l507x0TIl-9">
          <mxGeometry x="-0.2941" y="2" relative="1" as="geometry">
            <mxPoint x="-23" y="-13" as="offset" />
          </mxGeometry>
        </mxCell>
        <mxCell id="YR-1bHBkWM_l507x0TIl-11" value="" style="edgeStyle=orthogonalEdgeStyle;rounded=0;orthogonalLoop=1;jettySize=auto;html=1;" edge="1" parent="1" source="YR-1bHBkWM_l507x0TIl-6" target="YR-1bHBkWM_l507x0TIl-10">
          <mxGeometry relative="1" as="geometry" />
        </mxCell>
        <mxCell id="YR-1bHBkWM_l507x0TIl-29" value="F" style="edgeLabel;html=1;align=center;verticalAlign=middle;resizable=0;points=[];" vertex="1" connectable="0" parent="YR-1bHBkWM_l507x0TIl-11">
          <mxGeometry x="-0.52" y="-4" relative="1" as="geometry">
            <mxPoint x="-4" y="-12" as="offset" />
          </mxGeometry>
        </mxCell>
        <mxCell id="YR-1bHBkWM_l507x0TIl-6" value="Mất kết nối?" style="rhombus;whiteSpace=wrap;html=1;" vertex="1" parent="1">
          <mxGeometry x="273" y="320" width="130" height="130" as="geometry" />
        </mxCell>
        <mxCell id="YR-1bHBkWM_l507x0TIl-12" style="edgeStyle=orthogonalEdgeStyle;rounded=0;orthogonalLoop=1;jettySize=auto;html=1;" edge="1" parent="1" source="YR-1bHBkWM_l507x0TIl-8">
          <mxGeometry relative="1" as="geometry">
            <mxPoint x="338" y="470" as="targetPoint" />
            <Array as="points">
              <mxPoint x="548" y="470" />
            </Array>
          </mxGeometry>
        </mxCell>
        <mxCell id="YR-1bHBkWM_l507x0TIl-8" value="Thử kết nối lại và hiển thị thông báo" style="whiteSpace=wrap;html=1;" vertex="1" parent="1">
          <mxGeometry x="488" y="355" width="120" height="60" as="geometry" />
        </mxCell>
        <mxCell id="YR-1bHBkWM_l507x0TIl-14" value="" style="edgeStyle=orthogonalEdgeStyle;rounded=0;orthogonalLoop=1;jettySize=auto;html=1;" edge="1" parent="1" source="YR-1bHBkWM_l507x0TIl-10" target="YR-1bHBkWM_l507x0TIl-13">
          <mxGeometry relative="1" as="geometry" />
        </mxCell>
        <mxCell id="YR-1bHBkWM_l507x0TIl-10" value="Kiểm tra nút tăng tốc độ" style="whiteSpace=wrap;html=1;" vertex="1" parent="1">
          <mxGeometry x="278" y="500" width="120" height="60" as="geometry" />
        </mxCell>
        <mxCell id="YR-1bHBkWM_l507x0TIl-16" value="" style="edgeStyle=orthogonalEdgeStyle;rounded=0;orthogonalLoop=1;jettySize=auto;html=1;" edge="1" parent="1" source="YR-1bHBkWM_l507x0TIl-13" target="YR-1bHBkWM_l507x0TIl-15">
          <mxGeometry relative="1" as="geometry" />
        </mxCell>
        <mxCell id="YR-1bHBkWM_l507x0TIl-13" value="Kiểm tra nút giảm tốc độ" style="whiteSpace=wrap;html=1;" vertex="1" parent="1">
          <mxGeometry x="278" y="580" width="120" height="60" as="geometry" />
        </mxCell>
        <mxCell id="YR-1bHBkWM_l507x0TIl-18" value="" style="edgeStyle=orthogonalEdgeStyle;rounded=0;orthogonalLoop=1;jettySize=auto;html=1;" edge="1" parent="1" source="YR-1bHBkWM_l507x0TIl-15" target="YR-1bHBkWM_l507x0TIl-17">
          <mxGeometry relative="1" as="geometry" />
        </mxCell>
        <mxCell id="YR-1bHBkWM_l507x0TIl-15" value="Kiểm tra nút on/off" style="whiteSpace=wrap;html=1;" vertex="1" parent="1">
          <mxGeometry x="278" y="660" width="120" height="60" as="geometry" />
        </mxCell>
        <mxCell id="YR-1bHBkWM_l507x0TIl-20" value="" style="edgeStyle=orthogonalEdgeStyle;rounded=0;orthogonalLoop=1;jettySize=auto;html=1;" edge="1" parent="1" source="YR-1bHBkWM_l507x0TIl-17" target="YR-1bHBkWM_l507x0TIl-19">
          <mxGeometry relative="1" as="geometry" />
        </mxCell>
        <mxCell id="YR-1bHBkWM_l507x0TIl-17" value="Cập nhật giá trị RPM mỗi giây" style="whiteSpace=wrap;html=1;" vertex="1" parent="1">
          <mxGeometry x="278" y="740" width="120" height="60" as="geometry" />
        </mxCell>
        <mxCell id="YR-1bHBkWM_l507x0TIl-22" value="" style="edgeStyle=orthogonalEdgeStyle;rounded=0;orthogonalLoop=1;jettySize=auto;html=1;" edge="1" parent="1" source="YR-1bHBkWM_l507x0TIl-19" target="YR-1bHBkWM_l507x0TIl-21">
          <mxGeometry relative="1" as="geometry" />
        </mxCell>
        <mxCell id="YR-1bHBkWM_l507x0TIl-19" value="Hiển thị thông số lên LCD" style="shape=parallelogram;perimeter=parallelogramPerimeter;whiteSpace=wrap;html=1;fixedSize=1;" vertex="1" parent="1">
          <mxGeometry x="243" y="820" width="190" height="60" as="geometry" />
        </mxCell>
        <mxCell id="YR-1bHBkWM_l507x0TIl-23" style="edgeStyle=orthogonalEdgeStyle;rounded=0;orthogonalLoop=1;jettySize=auto;html=1;exitX=0;exitY=0.5;exitDx=0;exitDy=0;" edge="1" parent="1" source="YR-1bHBkWM_l507x0TIl-24">
          <mxGeometry relative="1" as="geometry">
            <mxPoint x="338" y="200" as="targetPoint" />
            <Array as="points">
              <mxPoint x="110" y="1000" />
              <mxPoint x="110" y="200" />
            </Array>
          </mxGeometry>
        </mxCell>
        <mxCell id="YR-1bHBkWM_l507x0TIl-25" style="edgeStyle=orthogonalEdgeStyle;rounded=0;orthogonalLoop=1;jettySize=auto;html=1;entryX=0.5;entryY=0;entryDx=0;entryDy=0;" edge="1" parent="1" source="YR-1bHBkWM_l507x0TIl-21" target="YR-1bHBkWM_l507x0TIl-24">
          <mxGeometry relative="1" as="geometry" />
        </mxCell>
        <mxCell id="YR-1bHBkWM_l507x0TIl-21" value="Gửi dữ liệu tới Blynk" style="whiteSpace=wrap;html=1;" vertex="1" parent="1">
          <mxGeometry x="278" y="910" width="120" height="60" as="geometry" />
        </mxCell>
        <mxCell id="YR-1bHBkWM_l507x0TIl-27" style="edgeStyle=orthogonalEdgeStyle;rounded=0;orthogonalLoop=1;jettySize=auto;html=1;entryX=0.5;entryY=0;entryDx=0;entryDy=0;" edge="1" parent="1" source="YR-1bHBkWM_l507x0TIl-24" target="YR-1bHBkWM_l507x0TIl-26">
          <mxGeometry relative="1" as="geometry" />
        </mxCell>
        <mxCell id="YR-1bHBkWM_l507x0TIl-30" value="T" style="edgeLabel;html=1;align=center;verticalAlign=middle;resizable=0;points=[];" vertex="1" connectable="0" parent="YR-1bHBkWM_l507x0TIl-27">
          <mxGeometry x="-0.5185" y="2" relative="1" as="geometry">
            <mxPoint x="-106" y="-8" as="offset" />
          </mxGeometry>
        </mxCell>
        <mxCell id="YR-1bHBkWM_l507x0TIl-31" value="F" style="edgeLabel;html=1;align=center;verticalAlign=middle;resizable=0;points=[];" vertex="1" connectable="0" parent="YR-1bHBkWM_l507x0TIl-27">
          <mxGeometry x="-0.6111" y="2" relative="1" as="geometry">
            <mxPoint x="-11" y="-8" as="offset" />
          </mxGeometry>
        </mxCell>
        <mxCell id="YR-1bHBkWM_l507x0TIl-24" value="Power?" style="rhombus;whiteSpace=wrap;html=1;" vertex="1" parent="1">
          <mxGeometry x="170" y="960" width="80" height="80" as="geometry" />
        </mxCell>
        <mxCell id="YR-1bHBkWM_l507x0TIl-26" value="Kết Thúc" style="ellipse;whiteSpace=wrap;html=1;" vertex="1" parent="1">
          <mxGeometry x="278" y="1020" width="120" height="80" as="geometry" />
        </mxCell>
      </root>
    </mxGraphModel>
  </diagram>
</mxfile>
